<svg xmlns="http://www.w3.org/2000/svg" xmlns:xlink="http://www.w3.org/1999/xlink" width="370.223" height="120" viewBox="0 0 370.223 120">
  <defs>
    <linearGradient id="linear-gradient" x1="1" y1="0.559" x2="0" y2="0.567" gradientUnits="objectBoundingBox">
      <stop offset="0" stop-color="#ff6a6a"/>
      <stop offset="1" stop-color="#807acc"/>
    </linearGradient>
    <linearGradient id="linear-gradient-2" y1="0.5" y2="0.5" xlink:href="#linear-gradient"/>
  </defs>
  <g id="Group_164" data-name="Group 164" transform="translate(-208.728 -238.172)">
    <rect id="Rectangle_32" data-name="Rectangle 32" width="40" height="40" transform="translate(458.951 318.172)" fill="#ff6a6a"/>
    <rect id="Rectangle_70" data-name="Rectangle 70" width="40" height="40" transform="translate(538.951 318.172)" fill="#ff6a6a"/>
    <rect id="Rectangle_84" data-name="Rectangle 84" width="40" height="40" transform="translate(538.951 238.172)" fill="#ff6a6a"/>
    <rect id="Rectangle_85" data-name="Rectangle 85" width="40" height="40" transform="translate(458.951 238.172)" fill="#ff6a6a"/>
    <rect id="Rectangle_86" data-name="Rectangle 86" width="40" height="40" transform="translate(378.951 238.172)" fill="#ff6a6a"/>
    <rect id="Rectangle_33" data-name="Rectangle 33" width="40" height="40" transform="translate(498.951 278.172)" fill="#ff6a6a"/>
    <rect id="Rectangle_34" data-name="Rectangle 34" width="40" height="40" transform="translate(418.951 278.172)" fill="#ff6a6a"/>
    <rect id="Rectangle_35" data-name="Rectangle 35" width="40" height="40" transform="translate(378.951 318.172)" fill="#ff6a6a"/>
    <rect id="Rectangle_37" data-name="Rectangle 37" width="40" height="40" transform="translate(298.951 318.172)" fill="#ff6a6a"/>
    <rect id="Rectangle_36" data-name="Rectangle 36" width="40" height="40" transform="translate(338.951 278.172)" fill="#ff6a6a"/>
    <path id="Path_134" data-name="Path 134" d="M0,0H40V40H0Z" transform="translate(208.728 297.91)" fill="url(#linear-gradient)"/>
    <rect id="Rectangle_39" data-name="Rectangle 39" width="40" height="40" transform="translate(274.951 253.172)" fill="url(#linear-gradient-2)"/>
  </g>
</svg>
