<svg xmlns="http://www.w3.org/2000/svg" width="75.769" height="71.498" viewBox="0 0 75.769 71.498">
  <g id="Group_95" data-name="Group 95" transform="translate(2)">
    <path id="Path_142" data-name="Path 142" d="M365,56.842V71.17a3.093,3.093,0,0,0,3.093,3.093h46.469a3.094,3.094,0,0,0,2.917-2.064l4.963-14.063a3.093,3.093,0,0,0-.2-2.5l-9.025-16.7a3.093,3.093,0,0,0-1.7-1.45l-16.788-5.856a3.093,3.093,0,0,0-4.112,2.921V50.162a3.093,3.093,0,0,1-3.093,3.093H368.093A3.093,3.093,0,0,0,365,56.349Z" transform="translate(-348.85 -31.458)" fill="#807acc"/>
    <path id="Path_143" data-name="Path 143" d="M422,126" transform="translate(-376.644 -77.559)" fill="none" stroke="#000" stroke-linecap="round" stroke-miterlimit="10" stroke-width="6"/>
    <path id="Path_144" data-name="Path 144" d="M333.48,60.54h8.71l52.263,43.04H349.374" transform="translate(-333.48 -45.639)" fill="none" stroke="#807acc" stroke-linecap="round" stroke-linejoin="round" stroke-width="4"/>
    <circle id="Ellipse_2" data-name="Ellipse 2" cx="6.149" cy="6.149" r="6.149" transform="translate(15.125 59.201)" fill="#807acc"/>
    <circle id="Ellipse_3" data-name="Ellipse 3" cx="6.149" cy="6.149" r="6.149" transform="translate(49.967 59.201)" fill="#807acc"/>
  </g>
</svg>
